<svg width="143" height="36" viewBox="0 0 143 36" fill="none" xmlns="http://www.w3.org/2000/svg">
<path d="M10.88 26.1013L10.6667 26.336C10.5244 26.5067 10.304 26.7058 10.0053 26.9333C9.72089 27.1609 9.38667 27.3884 9.00267 27.616C8.63289 27.8436 8.17778 28.0356 7.63733 28.192C7.09689 28.3627 6.54222 28.448 5.97333 28.448C2.13333 28.448 0.213333 26.5493 0.213333 22.752C0.213333 22.0124 0.348444 21.3369 0.618667 20.7253C0.888889 20.0996 1.23733 19.5733 1.664 19.1467C2.09067 18.72 2.60267 18.3431 3.2 18.016C3.79733 17.6747 4.39467 17.4116 4.992 17.2267C5.60356 17.0276 6.24356 16.864 6.912 16.736C7.58044 16.608 8.17778 16.5227 8.704 16.48C9.23022 16.4373 9.73511 16.416 10.2187 16.416V16.032C10.2187 15.1644 9.984 14.5529 9.51467 14.1973C9.05956 13.8418 8.32 13.664 7.296 13.664C6.41422 13.664 5.49689 13.7707 4.544 13.984C3.59111 14.1831 2.84444 14.4249 2.304 14.7093L0.938667 11.808C1.90578 11.1822 3.16444 10.6347 4.71467 10.1653C6.26489 9.68178 7.84356 9.44 9.45067 9.44C10.8729 9.44 12.0462 9.58222 12.9707 9.86667C13.8951 10.1369 14.6418 10.6062 15.2107 11.2747C15.7938 11.9289 16.2062 12.768 16.448 13.792C16.6898 14.8018 16.8107 16.0889 16.8107 17.6533V26.336L17.408 28H11.5627L10.88 26.1013ZM9.19467 24.6933C9.37956 24.6933 9.55022 24.6578 9.70667 24.5867C9.87733 24.5013 10.0053 24.4231 10.0907 24.352C10.176 24.2667 10.2187 24.224 10.2187 24.224V19.104C9.35111 19.104 8.66133 19.3458 8.14933 19.8293C7.63733 20.2987 7.38133 21.0311 7.38133 22.0267C7.38133 23.8044 7.98578 24.6933 9.19467 24.6933ZM26.4297 28H19.539V14.1973L18.259 13.408V11.1253L22.8457 9.86667H26.4723V12.6187L26.7283 12.2987C26.899 12.0711 27.1479 11.8009 27.475 11.488C27.8163 11.1751 28.1932 10.8693 28.6057 10.5707C29.0181 10.2578 29.5088 9.99467 30.0777 9.78133C30.6608 9.55378 31.2297 9.44 31.7843 9.44C33.7328 9.44 35.1052 9.97333 35.9017 11.04C36.7123 12.1067 37.1177 13.8916 37.1177 16.3947C37.1177 16.48 37.1177 16.608 37.1177 16.7787C37.1034 16.9493 37.0963 17.0844 37.0963 17.184V28H30.0563V16.5653C30.099 15.2284 29.5301 14.56 28.3497 14.56C28.2643 14.56 28.179 14.5671 28.0937 14.5813C28.0226 14.5956 27.9514 14.6098 27.8803 14.624C27.8234 14.6382 27.7523 14.6667 27.667 14.7093C27.5959 14.7378 27.5319 14.7662 27.475 14.7947C27.4181 14.8089 27.3541 14.8444 27.283 14.9013C27.2119 14.944 27.155 14.9796 27.1123 15.008C27.0697 15.0364 27.0057 15.0862 26.9203 15.1573C26.8492 15.2142 26.7923 15.2569 26.7497 15.2853C26.7212 15.3138 26.6643 15.3636 26.579 15.4347C26.5079 15.4916 26.4581 15.5342 26.4297 15.5627V28ZM48.0023 35.5307C46.893 35.5307 45.6414 35.2747 44.2477 34.7627C42.8539 34.2649 41.9508 33.7884 41.5383 33.3333L42.8823 30.4107C43.2379 30.6809 43.8139 30.9298 44.6103 31.1573C45.4068 31.3849 46.0894 31.4987 46.6583 31.4987C47.2272 31.4987 47.7179 31.4204 48.1303 31.264C48.557 31.1218 48.8841 30.9369 49.1117 30.7093C49.3392 30.496 49.5241 30.2258 49.6663 29.8987C49.8086 29.5858 49.8939 29.3013 49.9223 29.0453C49.965 28.7893 49.9934 28.5049 50.0077 28.192V26.3787C48.7988 27.6302 47.3268 28.256 45.5917 28.256C43.245 28.256 41.5241 27.4524 40.429 25.8453C39.3339 24.2382 38.7863 22.0053 38.7863 19.1467C38.7863 17.8098 38.9357 16.5796 39.2343 15.456C39.533 14.3182 39.9668 13.3227 40.5357 12.4693C41.1188 11.6018 41.8726 10.9262 42.797 10.4427C43.7214 9.94489 44.7668 9.696 45.933 9.696C47.6966 9.696 49.2254 10.0871 50.5197 10.8693L50.8823 9.86667H54.1463L58.157 10.0587V12.064L56.877 12.96V27.2107C56.877 32.7573 53.9188 35.5307 48.0023 35.5307ZM48.685 24.3733C49.1117 24.3733 49.5526 24.2524 50.0077 24.0107V12.768C49.6663 12.6969 49.3534 12.6613 49.069 12.6613C47.1774 12.6756 46.2246 14.1333 46.2103 17.0347V20.3413C46.2103 21.2516 46.3312 22.0338 46.573 22.688C46.9997 23.8116 47.7037 24.3733 48.685 24.3733ZM69.4302 16.9707C69.4302 15.1644 69.3377 13.8844 69.1528 13.1307C68.9679 12.3769 68.6266 12 68.1288 12C67.7022 12 67.3537 12.0782 67.0835 12.2347C66.8133 12.3769 66.6142 12.6116 66.4862 12.9387C66.3582 13.2516 66.2728 13.5787 66.2302 13.92C66.2017 14.2471 66.1875 14.6667 66.1875 15.1787V16.9707H69.4302ZM67.7235 28.448C66.1306 28.448 64.7439 28.2062 63.5635 27.7227C62.3973 27.2391 61.4728 26.5636 60.7902 25.696C60.1217 24.8284 59.6311 23.8542 59.3182 22.7733C59.0053 21.6782 58.8488 20.4622 58.8488 19.1253C58.8488 15.9396 59.6595 13.5289 61.2808 11.8933C62.9022 10.2578 65.1706 9.44 68.0862 9.44C70.8879 9.44 72.8933 10.1013 74.1022 11.424C75.3111 12.7324 75.9155 14.8444 75.9155 17.76V20.128H66.1662V20.5333C66.1662 21.3724 66.2515 22.0622 66.4222 22.6027C66.6071 23.1431 66.8702 23.5413 67.2115 23.7973C67.5528 24.0533 67.9013 24.224 68.2568 24.3093C68.6124 24.3947 69.0462 24.4373 69.5582 24.4373C70.0559 24.4373 70.5893 24.3733 71.1582 24.2453C71.7413 24.1173 72.3244 23.9182 72.9075 23.648C73.5048 23.3778 74.0026 23.0578 74.4008 22.688L75.6595 24.8427C75.1333 25.696 74.3582 26.4142 73.3342 26.9973C72.3244 27.5662 71.3502 27.9502 70.4115 28.1493C69.4728 28.3484 68.5768 28.448 67.7235 28.448ZM77.9918 28V3.872L76.7118 3.104V1.12L83.5598 0.0533333H84.9465V28H77.9918ZM99.7143 28L98.8823 25.248C98.7686 25.4471 98.6334 25.6462 98.477 25.8453C98.3348 26.0444 98.1001 26.3004 97.773 26.6133C97.4459 26.912 97.0974 27.1751 96.7277 27.4027C96.3579 27.6302 95.8957 27.8293 95.341 28C94.7863 28.1707 94.2032 28.256 93.5917 28.256C91.245 28.256 89.5241 27.4524 88.429 25.8453C87.3339 24.2382 86.7863 22.0053 86.7863 19.1467C86.7863 17.3547 87.0423 15.7618 87.5543 14.368C88.0663 12.96 88.8699 11.8293 89.965 10.976C91.0601 10.1227 92.3828 9.696 93.933 9.696C94.8574 9.696 95.6823 9.79556 96.4077 9.99467C97.133 10.1938 97.7588 10.4356 98.285 10.72V4.256L95.9383 3.46667V1.12L103.49 0.0533333H105.154V28H99.7143ZM96.7063 24.0747C96.9623 24.0747 97.2254 24.032 97.4957 23.9467C97.7659 23.8471 98.029 23.712 98.285 23.5413V12.8107C97.8441 12.7111 97.4388 12.6613 97.069 12.6613C95.1774 12.6756 94.2246 14.1333 94.2103 17.0347V20.0213C94.2103 21.3582 94.445 22.368 94.9143 23.0507C95.3837 23.7333 95.981 24.0747 96.7063 24.0747ZM117.255 26.1013L117.042 26.336C116.899 26.5067 116.679 26.7058 116.38 26.9333C116.096 27.1609 115.762 27.3884 115.378 27.616C115.008 27.8436 114.553 28.0356 114.012 28.192C113.472 28.3627 112.917 28.448 112.348 28.448C108.508 28.448 106.588 26.5493 106.588 22.752C106.588 22.0124 106.723 21.3369 106.994 20.7253C107.264 20.0996 107.612 19.5733 108.039 19.1467C108.466 18.72 108.978 18.3431 109.575 18.016C110.172 17.6747 110.77 17.4116 111.367 17.2267C111.979 17.0276 112.619 16.864 113.287 16.736C113.955 16.608 114.553 16.5227 115.079 16.48C115.605 16.4373 116.11 16.416 116.594 16.416V16.032C116.594 15.1644 116.359 14.5529 115.89 14.1973C115.435 13.8418 114.695 13.664 113.671 13.664C112.789 13.664 111.872 13.7707 110.919 13.984C109.966 14.1831 109.219 14.4249 108.679 14.7093L107.314 11.808C108.281 11.1822 109.539 10.6347 111.09 10.1653C112.64 9.68178 114.219 9.44 115.826 9.44C117.248 9.44 118.421 9.58222 119.346 9.86667C120.27 10.1369 121.017 10.6062 121.586 11.2747C122.169 11.9289 122.581 12.768 122.823 13.792C123.065 14.8018 123.186 16.0889 123.186 17.6533V26.336L123.783 28H117.938L117.255 26.1013ZM115.57 24.6933C115.755 24.6933 115.925 24.6578 116.082 24.5867C116.252 24.5013 116.38 24.4231 116.466 24.352C116.551 24.2667 116.594 24.224 116.594 24.224V19.104C115.726 19.104 115.036 19.3458 114.524 19.8293C114.012 20.2987 113.756 21.0311 113.756 22.0267C113.756 23.8044 114.361 24.6933 115.57 24.6933ZM130.053 28L123.781 9.86667H131.439L132.805 16.416L133.786 22.0693L134.874 16.416L136.453 9.86667H142.213L136.773 28H130.053Z" fill="white"/>
</svg>
